<?xml version="1.0" encoding="UTF-8" standalone="no"?>
<!DOCTYPE svg PUBLIC "-//W3C//DTD SVG 1.1//EN"
 "http://www.w3.org/Graphics/SVG/1.1/DTD/svg11.dtd">
<!-- Generated by graphviz version 11.0.0 (20240519.1550)
 -->
<!-- Title: snakemake_dag Pages: 1 -->
<svg width="461pt" height="476pt"
 viewBox="0.00 0.00 461.12 476.00" xmlns="http://www.w3.org/2000/svg" xmlns:xlink="http://www.w3.org/1999/xlink">
<g id="graph0" class="graph" transform="scale(1 1) rotate(0) translate(4 472)">
<title>snakemake_dag</title>
<polygon fill="white" stroke="none" points="-4,4 -4,-472 457.12,-472 457.12,4 -4,4"/>
<!-- 0 -->
<g id="node1" class="node">
<title>0</title>
<path fill="none" stroke="#78d856" stroke-width="2" d="M156.38,-36C156.38,-36 126.38,-36 126.38,-36 120.38,-36 114.38,-30 114.38,-24 114.38,-24 114.38,-12 114.38,-12 114.38,-6 120.38,0 126.38,0 126.38,0 156.38,0 156.38,0 162.38,0 168.38,-6 168.38,-12 168.38,-12 168.38,-24 168.38,-24 168.38,-30 162.38,-36 156.38,-36"/>
<text text-anchor="middle" x="141.38" y="-14.88" font-family="sans" font-size="10.00">all</text>
</g>
<!-- 1 -->
<g id="node2" class="node">
<title>1</title>
<path fill="none" stroke="#c6d856" stroke-width="2" d="M172.62,-108C172.62,-108 110.12,-108 110.12,-108 104.12,-108 98.12,-102 98.12,-96 98.12,-96 98.12,-84 98.12,-84 98.12,-78 104.12,-72 110.12,-72 110.12,-72 172.62,-72 172.62,-72 178.62,-72 184.62,-78 184.62,-84 184.62,-84 184.62,-96 184.62,-96 184.62,-102 178.62,-108 172.62,-108"/>
<text text-anchor="middle" x="141.38" y="-86.88" font-family="sans" font-size="10.00">run_novotyper</text>
</g>
<!-- 1&#45;&gt;0 -->
<g id="edge1" class="edge">
<title>1&#45;&gt;0</title>
<path fill="none" stroke="grey" stroke-width="2" d="M141.38,-71.34C141.38,-64.75 141.38,-57.08 141.38,-49.67"/>
<polygon fill="grey" stroke="grey" stroke-width="2" points="144.88,-49.93 141.38,-39.93 137.88,-49.93 144.88,-49.93"/>
</g>
<!-- 2 -->
<g id="node3" class="node">
<title>2</title>
<path fill="none" stroke="#56d87b" stroke-width="2" d="M180.25,-396C180.25,-396 94.5,-396 94.5,-396 88.5,-396 82.5,-390 82.5,-384 82.5,-384 82.5,-372 82.5,-372 82.5,-366 88.5,-360 94.5,-360 94.5,-360 180.25,-360 180.25,-360 186.25,-360 192.25,-366 192.25,-372 192.25,-372 192.25,-384 192.25,-384 192.25,-390 186.25,-396 180.25,-396"/>
<text text-anchor="middle" x="137.38" y="-381.25" font-family="sans" font-size="10.00">make_alt_scaffolds</text>
<text text-anchor="middle" x="137.38" y="-368.5" font-family="sans" font-size="10.00">sample: HG005</text>
</g>
<!-- 2&#45;&gt;1 -->
<g id="edge2" class="edge">
<title>2&#45;&gt;1</title>
<path fill="none" stroke="grey" stroke-width="2" d="M137.63,-359.11C138.29,-311.56 140.11,-181.6 140.94,-121.83"/>
<polygon fill="grey" stroke="grey" stroke-width="2" points="144.44,-121.96 141.08,-111.91 137.44,-121.86 144.44,-121.96"/>
</g>
<!-- 4 -->
<g id="node5" class="node">
<title>4</title>
<path fill="none" stroke="#d8a456" stroke-width="2" d="M257.5,-180C257.5,-180 167.25,-180 167.25,-180 161.25,-180 155.25,-174 155.25,-168 155.25,-168 155.25,-156 155.25,-156 155.25,-150 161.25,-144 167.25,-144 167.25,-144 257.5,-144 257.5,-144 263.5,-144 269.5,-150 269.5,-156 269.5,-156 269.5,-168 269.5,-168 269.5,-174 263.5,-180 257.5,-180"/>
<text text-anchor="middle" x="212.38" y="-158.88" font-family="sans" font-size="10.00">make_bedgraph_file</text>
</g>
<!-- 2&#45;&gt;4 -->
<g id="edge6" class="edge">
<title>2&#45;&gt;4</title>
<path fill="none" stroke="grey" stroke-width="2" d="M140.02,-359.32C143,-341.15 148.48,-312.18 156.38,-288 167.43,-254.16 184.71,-217.15 197.15,-192.25"/>
<polygon fill="grey" stroke="grey" stroke-width="2" points="200.21,-193.94 201.62,-183.44 193.97,-190.78 200.21,-193.94"/>
</g>
<!-- 6 -->
<g id="node7" class="node">
<title>6</title>
<path fill="none" stroke="#d85656" stroke-width="2" d="M441.12,-324C441.12,-324 177.62,-324 177.62,-324 171.62,-324 165.62,-318 165.62,-312 165.62,-312 165.62,-300 165.62,-300 165.62,-294 171.62,-288 177.62,-288 177.62,-288 441.12,-288 441.12,-288 447.12,-288 453.12,-294 453.12,-300 453.12,-300 453.12,-312 453.12,-312 453.12,-318 447.12,-324 441.12,-324"/>
<text text-anchor="middle" x="309.38" y="-309.25" font-family="sans" font-size="10.00">run_novoindex</text>
<text text-anchor="middle" x="309.38" y="-296.5" font-family="sans" font-size="10.00">reference: GRCh38_full_analysis_set_plus_decoy_hla.fa</text>
</g>
<!-- 2&#45;&gt;6 -->
<g id="edge9" class="edge">
<title>2&#45;&gt;6</title>
<path fill="none" stroke="grey" stroke-width="2" d="M181.22,-359.15C203.17,-350.22 229.99,-339.31 253.41,-329.77"/>
<polygon fill="grey" stroke="grey" stroke-width="2" points="254.56,-333.09 262.5,-326.08 251.92,-326.6 254.56,-333.09"/>
</g>
<!-- 3 -->
<g id="node4" class="node">
<title>3</title>
<path fill="none" stroke="#56a2d8" stroke-width="2" d="M262.75,-468C262.75,-468 12,-468 12,-468 6,-468 0,-462 0,-456 0,-456 0,-444 0,-444 0,-438 6,-432 12,-432 12,-432 262.75,-432 262.75,-432 268.75,-432 274.75,-438 274.75,-444 274.75,-444 274.75,-456 274.75,-456 274.75,-462 268.75,-468 262.75,-468"/>
<text text-anchor="middle" x="137.38" y="-453.25" font-family="sans" font-size="10.00">run_novoindex_on_original_reference</text>
<text text-anchor="middle" x="137.38" y="-440.5" font-family="sans" font-size="10.00">reference: GRCh38_full_analysis_set_plus_decoy_hla</text>
</g>
<!-- 3&#45;&gt;2 -->
<g id="edge4" class="edge">
<title>3&#45;&gt;2</title>
<path fill="none" stroke="grey" stroke-width="2" d="M137.38,-431.34C137.38,-424.75 137.38,-417.08 137.38,-409.67"/>
<polygon fill="grey" stroke="grey" stroke-width="2" points="140.88,-409.93 137.38,-399.93 133.88,-409.93 140.88,-409.93"/>
</g>
<!-- 4&#45;&gt;1 -->
<g id="edge3" class="edge">
<title>4&#45;&gt;1</title>
<path fill="none" stroke="grey" stroke-width="2" d="M194.46,-143.34C186.61,-135.6 177.24,-126.36 168.56,-117.81"/>
<polygon fill="grey" stroke="grey" stroke-width="2" points="171.27,-115.56 161.69,-111.03 166.35,-120.54 171.27,-115.56"/>
</g>
<!-- 5 -->
<g id="node6" class="node">
<title>5</title>
<path fill="none" stroke="#56d8c9" stroke-width="2" d="M331,-252C331,-252 273.75,-252 273.75,-252 267.75,-252 261.75,-246 261.75,-240 261.75,-240 261.75,-228 261.75,-228 261.75,-222 267.75,-216 273.75,-216 273.75,-216 331,-216 331,-216 337,-216 343,-222 343,-228 343,-228 343,-240 343,-240 343,-246 337,-252 331,-252"/>
<text text-anchor="middle" x="302.38" y="-230.88" font-family="sans" font-size="10.00">align_sample</text>
</g>
<!-- 5&#45;&gt;4 -->
<g id="edge5" class="edge">
<title>5&#45;&gt;4</title>
<path fill="none" stroke="grey" stroke-width="2" d="M279.66,-215.34C269.3,-207.27 256.82,-197.57 245.44,-188.72"/>
<polygon fill="grey" stroke="grey" stroke-width="2" points="247.82,-186.14 237.78,-182.76 243.53,-191.66 247.82,-186.14"/>
</g>
<!-- 6&#45;&gt;4 -->
<g id="edge7" class="edge">
<title>6&#45;&gt;4</title>
<path fill="none" stroke="grey" stroke-width="2" d="M286.21,-287.18C274.94,-277.65 261.82,-265.18 252.38,-252 239.43,-233.94 229.25,-211.03 222.4,-192.97"/>
<polygon fill="grey" stroke="grey" stroke-width="2" points="225.73,-191.88 219.03,-183.67 219.14,-194.26 225.73,-191.88"/>
</g>
<!-- 6&#45;&gt;5 -->
<g id="edge8" class="edge">
<title>6&#45;&gt;5</title>
<path fill="none" stroke="grey" stroke-width="2" d="M307.61,-287.34C306.95,-280.75 306.18,-273.08 305.44,-265.67"/>
<polygon fill="grey" stroke="grey" stroke-width="2" points="308.94,-265.52 304.47,-255.91 301.98,-266.21 308.94,-265.52"/>
</g>
</g>
</svg>
