<?xml version="1.0" encoding="UTF-8" standalone="no"?>
<!DOCTYPE svg PUBLIC "-//W3C//DTD SVG 1.1//EN"
 "http://www.w3.org/Graphics/SVG/1.1/DTD/svg11.dtd">
<!-- Generated by graphviz version 11.0.0 (20240519.1550)
 -->
<!-- Title: snakemake_dag Pages: 1 -->
<svg width="375pt" height="404pt"
 viewBox="0.00 0.00 375.12 404.00" xmlns="http://www.w3.org/2000/svg" xmlns:xlink="http://www.w3.org/1999/xlink">
<g id="graph0" class="graph" transform="scale(1 1) rotate(0) translate(4 400)">
<title>snakemake_dag</title>
<polygon fill="white" stroke="none" points="-4,4 -4,-400 371.12,-400 371.12,4 -4,4"/>
<!-- 0 -->
<g id="node1" class="node">
<title>0</title>
<path fill="none" stroke="#d8a456" stroke-width="2" d="M169.38,-36C169.38,-36 139.38,-36 139.38,-36 133.38,-36 127.38,-30 127.38,-24 127.38,-24 127.38,-12 127.38,-12 127.38,-6 133.38,0 139.38,0 139.38,0 169.38,0 169.38,0 175.38,0 181.38,-6 181.38,-12 181.38,-12 181.38,-24 181.38,-24 181.38,-30 175.38,-36 169.38,-36"/>
<text text-anchor="middle" x="154.38" y="-14.88" font-family="sans" font-size="10.00">all</text>
</g>
<!-- 1 -->
<g id="node2" class="node">
<title>1</title>
<path fill="none" stroke="#56a2d8" stroke-width="2" d="M199.5,-108C199.5,-108 109.25,-108 109.25,-108 103.25,-108 97.25,-102 97.25,-96 97.25,-96 97.25,-84 97.25,-84 97.25,-78 103.25,-72 109.25,-72 109.25,-72 199.5,-72 199.5,-72 205.5,-72 211.5,-78 211.5,-84 211.5,-84 211.5,-96 211.5,-96 211.5,-102 205.5,-108 199.5,-108"/>
<text text-anchor="middle" x="154.38" y="-86.88" font-family="sans" font-size="10.00">make_bedgraph_file</text>
</g>
<!-- 1&#45;&gt;0 -->
<g id="edge1" class="edge">
<title>1&#45;&gt;0</title>
<path fill="none" stroke="grey" stroke-width="2" d="M154.38,-71.34C154.38,-64.75 154.38,-57.08 154.38,-49.67"/>
<polygon fill="grey" stroke="grey" stroke-width="2" points="157.88,-49.93 154.38,-39.93 150.88,-49.93 157.88,-49.93"/>
</g>
<!-- 2 -->
<g id="node3" class="node">
<title>2</title>
<path fill="none" stroke="#56d8c9" stroke-width="2" d="M252,-180C252,-180 194.75,-180 194.75,-180 188.75,-180 182.75,-174 182.75,-168 182.75,-168 182.75,-156 182.75,-156 182.75,-150 188.75,-144 194.75,-144 194.75,-144 252,-144 252,-144 258,-144 264,-150 264,-156 264,-156 264,-168 264,-168 264,-174 258,-180 252,-180"/>
<text text-anchor="middle" x="223.38" y="-158.88" font-family="sans" font-size="10.00">align_sample</text>
</g>
<!-- 2&#45;&gt;1 -->
<g id="edge2" class="edge">
<title>2&#45;&gt;1</title>
<path fill="none" stroke="grey" stroke-width="2" d="M205.96,-143.34C198.42,-135.69 189.42,-126.56 181.07,-118.08"/>
<polygon fill="grey" stroke="grey" stroke-width="2" points="183.66,-115.72 174.15,-111.06 178.67,-120.64 183.66,-115.72"/>
</g>
<!-- 3 -->
<g id="node4" class="node">
<title>3</title>
<path fill="none" stroke="#d85656" stroke-width="2" d="M355.12,-252C355.12,-252 91.62,-252 91.62,-252 85.62,-252 79.62,-246 79.62,-240 79.62,-240 79.62,-228 79.62,-228 79.62,-222 85.62,-216 91.62,-216 91.62,-216 355.12,-216 355.12,-216 361.12,-216 367.12,-222 367.12,-228 367.12,-228 367.12,-240 367.12,-240 367.12,-246 361.12,-252 355.12,-252"/>
<text text-anchor="middle" x="223.38" y="-237.25" font-family="sans" font-size="10.00">run_novoindex</text>
<text text-anchor="middle" x="223.38" y="-224.5" font-family="sans" font-size="10.00">reference: GRCh38_full_analysis_set_plus_decoy_hla.fa</text>
</g>
<!-- 3&#45;&gt;1 -->
<g id="edge4" class="edge">
<title>3&#45;&gt;1</title>
<path fill="none" stroke="grey" stroke-width="2" d="M201.75,-215.16C191.67,-205.72 180.37,-193.33 173.38,-180 163.88,-161.92 159.13,-139.41 156.76,-121.55"/>
<polygon fill="grey" stroke="grey" stroke-width="2" points="160.24,-121.24 155.67,-111.68 153.29,-122.01 160.24,-121.24"/>
</g>
<!-- 3&#45;&gt;2 -->
<g id="edge5" class="edge">
<title>3&#45;&gt;2</title>
<path fill="none" stroke="grey" stroke-width="2" d="M223.38,-215.34C223.38,-208.75 223.38,-201.08 223.38,-193.67"/>
<polygon fill="grey" stroke="grey" stroke-width="2" points="226.88,-193.93 223.38,-183.93 219.88,-193.93 226.88,-193.93"/>
</g>
<!-- 4 -->
<g id="node5" class="node">
<title>4</title>
<path fill="none" stroke="#c6d856" stroke-width="2" d="M180.25,-324C180.25,-324 94.5,-324 94.5,-324 88.5,-324 82.5,-318 82.5,-312 82.5,-312 82.5,-300 82.5,-300 82.5,-294 88.5,-288 94.5,-288 94.5,-288 180.25,-288 180.25,-288 186.25,-288 192.25,-294 192.25,-300 192.25,-300 192.25,-312 192.25,-312 192.25,-318 186.25,-324 180.25,-324"/>
<text text-anchor="middle" x="137.38" y="-309.25" font-family="sans" font-size="10.00">make_alt_scaffolds</text>
<text text-anchor="middle" x="137.38" y="-296.5" font-family="sans" font-size="10.00">sample: HG005</text>
</g>
<!-- 4&#45;&gt;1 -->
<g id="edge3" class="edge">
<title>4&#45;&gt;1</title>
<path fill="none" stroke="grey" stroke-width="2" d="M103.44,-287.04C90.61,-278.32 77.42,-266.55 70.38,-252 63.4,-237.6 65.71,-231.3 70.38,-216 81.8,-178.53 108.62,-142.1 128.91,-118.33"/>
<polygon fill="grey" stroke="grey" stroke-width="2" points="131.45,-120.75 135.42,-110.92 126.19,-116.13 131.45,-120.75"/>
</g>
<!-- 4&#45;&gt;3 -->
<g id="edge6" class="edge">
<title>4&#45;&gt;3</title>
<path fill="none" stroke="grey" stroke-width="2" d="M159.08,-287.34C168.88,-279.36 180.66,-269.77 191.44,-260.99"/>
<polygon fill="grey" stroke="grey" stroke-width="2" points="193.49,-263.84 199.03,-254.81 189.07,-258.41 193.49,-263.84"/>
</g>
<!-- 5 -->
<g id="node6" class="node">
<title>5</title>
<path fill="none" stroke="#56d87b" stroke-width="2" d="M262.75,-396C262.75,-396 12,-396 12,-396 6,-396 0,-390 0,-384 0,-384 0,-372 0,-372 0,-366 6,-360 12,-360 12,-360 262.75,-360 262.75,-360 268.75,-360 274.75,-366 274.75,-372 274.75,-372 274.75,-384 274.75,-384 274.75,-390 268.75,-396 262.75,-396"/>
<text text-anchor="middle" x="137.38" y="-381.25" font-family="sans" font-size="10.00">run_novoindex_on_original_reference</text>
<text text-anchor="middle" x="137.38" y="-368.5" font-family="sans" font-size="10.00">reference: GRCh38_full_analysis_set_plus_decoy_hla</text>
</g>
<!-- 5&#45;&gt;4 -->
<g id="edge7" class="edge">
<title>5&#45;&gt;4</title>
<path fill="none" stroke="grey" stroke-width="2" d="M137.38,-359.34C137.38,-352.75 137.38,-345.08 137.38,-337.67"/>
<polygon fill="grey" stroke="grey" stroke-width="2" points="140.88,-337.93 137.38,-327.93 133.88,-337.93 140.88,-337.93"/>
</g>
</g>
</svg>
