<svg xmlns="http://www.w3.org/2000/svg" xmlns:xlink="http://www.w3.org/1999/xlink" version="1.1" class="marks" width="397" height="347" viewBox="0 0 397 347"><rect width="397" height="347" fill="white"/><g fill="none" stroke-miterlimit="10" transform="translate(44,10)"><g class="mark-group role-frame root" role="graphics-object" aria-roledescription="group mark container"><g transform="translate(0,0)"><path class="background" aria-hidden="true" d="M0.5,0.5h300v300h-300Z" stroke="#ddd"/><g><g class="mark-group role-axis" aria-hidden="true"><g transform="translate(0.5,0.5)"><path class="background" aria-hidden="true" d="M0,0h0v0h0Z" pointer-events="none"/><g><g class="mark-rule role-axis-grid" pointer-events="none"><line transform="translate(0,300)" x2="300" y2="0" stroke="#ddd" stroke-width="1" opacity="1"/><line transform="translate(0,267)" x2="300" y2="0" stroke="#ddd" stroke-width="1" opacity="1"/><line transform="translate(0,233)" x2="300" y2="0" stroke="#ddd" stroke-width="1" opacity="1"/><line transform="translate(0,200)" x2="300" y2="0" stroke="#ddd" stroke-width="1" opacity="1"/><line transform="translate(0,167)" x2="300" y2="0" stroke="#ddd" stroke-width="1" opacity="1"/><line transform="translate(0,133)" x2="300" y2="0" stroke="#ddd" stroke-width="1" opacity="1"/><line transform="translate(0,100)" x2="300" y2="0" stroke="#ddd" stroke-width="1" opacity="1"/><line transform="translate(0,67)" x2="300" y2="0" stroke="#ddd" stroke-width="1" opacity="1"/><line transform="translate(0,33)" x2="300" y2="0" stroke="#ddd" stroke-width="1" opacity="1"/><line transform="translate(0,0)" x2="300" y2="0" stroke="#ddd" stroke-width="1" opacity="1"/></g></g><path class="foreground" aria-hidden="true" d="" pointer-events="none" display="none"/></g></g><g class="mark-group role-axis" role="graphics-symbol" aria-roledescription="axis" aria-label="X-axis titled 'cbrt_ratio (binned)' for a linear scale with values from 0 to 6"><g transform="translate(0.5,300.5)"><path class="background" aria-hidden="true" d="M0,0h0v0h0Z" pointer-events="none"/><g><g class="mark-rule role-axis-tick" pointer-events="none"><line transform="translate(0,0)" x2="0" y2="5" stroke="#888" stroke-width="1" opacity="1"/><line transform="translate(2,0)" x2="0" y2="5" stroke="#888" stroke-width="1" opacity="1"/><line transform="translate(5,0)" x2="0" y2="5" stroke="#888" stroke-width="1" opacity="1"/><line transform="translate(7,0)" x2="0" y2="5" stroke="#888" stroke-width="1" opacity="1"/><line transform="translate(10,0)" x2="0" y2="5" stroke="#888" stroke-width="1" opacity="1"/><line transform="translate(12,0)" x2="0" y2="5" stroke="#888" stroke-width="1" opacity="1"/><line transform="translate(15,0)" x2="0" y2="5" stroke="#888" stroke-width="1" opacity="1"/><line transform="translate(17,0)" x2="0" y2="5" stroke="#888" stroke-width="1" opacity="1"/><line transform="translate(19,0)" x2="0" y2="5" stroke="#888" stroke-width="1" opacity="1"/><line transform="translate(22,0)" x2="0" y2="5" stroke="#888" stroke-width="1" opacity="1"/><line transform="translate(24,0)" x2="0" y2="5" stroke="#888" stroke-width="1" opacity="1"/><line transform="translate(27,0)" x2="0" y2="5" stroke="#888" stroke-width="1" opacity="1"/><line transform="translate(29,0)" x2="0" y2="5" stroke="#888" stroke-width="1" opacity="1"/><line transform="translate(31,0)" x2="0" y2="5" stroke="#888" stroke-width="1" opacity="1"/><line transform="translate(34,0)" x2="0" y2="5" stroke="#888" stroke-width="1" opacity="1"/><line transform="translate(36,0)" x2="0" y2="5" stroke="#888" stroke-width="1" opacity="1"/><line transform="translate(39,0)" x2="0" y2="5" stroke="#888" stroke-width="1" opacity="1"/><line transform="translate(41,0)" x2="0" y2="5" stroke="#888" stroke-width="1" opacity="1"/><line transform="translate(44,0)" x2="0" y2="5" stroke="#888" stroke-width="1" opacity="1"/><line transform="translate(46,0)" x2="0" y2="5" stroke="#888" stroke-width="1" opacity="1"/><line transform="translate(48,0)" x2="0" y2="5" stroke="#888" stroke-width="1" opacity="1"/><line transform="translate(51,0)" x2="0" y2="5" stroke="#888" stroke-width="1" opacity="1"/><line transform="translate(53,0)" x2="0" y2="5" stroke="#888" stroke-width="1" opacity="1"/><line transform="translate(56,0)" x2="0" y2="5" stroke="#888" stroke-width="1" opacity="1"/><line transform="translate(58,0)" x2="0" y2="5" stroke="#888" stroke-width="1" opacity="1"/><line transform="translate(60,0)" x2="0" y2="5" stroke="#888" stroke-width="1" opacity="1"/><line transform="translate(63,0)" x2="0" y2="5" stroke="#888" stroke-width="1" opacity="1"/><line transform="translate(65,0)" x2="0" y2="5" stroke="#888" stroke-width="1" opacity="1"/><line transform="translate(68,0)" x2="0" y2="5" stroke="#888" stroke-width="1" opacity="1"/><line transform="translate(70,0)" x2="0" y2="5" stroke="#888" stroke-width="1" opacity="1"/><line transform="translate(73,0)" x2="0" y2="5" stroke="#888" stroke-width="1" opacity="1"/><line transform="translate(75,0)" x2="0" y2="5" stroke="#888" stroke-width="1" opacity="1"/><line transform="translate(77,0)" x2="0" y2="5" stroke="#888" stroke-width="1" opacity="1"/><line transform="translate(80,0)" x2="0" y2="5" stroke="#888" stroke-width="1" opacity="1"/><line transform="translate(82,0)" x2="0" y2="5" stroke="#888" stroke-width="1" opacity="1"/><line transform="translate(85,0)" x2="0" y2="5" stroke="#888" stroke-width="1" opacity="1"/><line transform="translate(87,0)" x2="0" y2="5" stroke="#888" stroke-width="1" opacity="1"/><line transform="translate(90,0)" x2="0" y2="5" stroke="#888" stroke-width="1" opacity="1"/><line transform="translate(92,0)" x2="0" y2="5" stroke="#888" stroke-width="1" opacity="1"/><line transform="translate(94,0)" x2="0" y2="5" stroke="#888" stroke-width="1" opacity="1"/><line transform="translate(97,0)" x2="0" y2="5" stroke="#888" stroke-width="1" opacity="1"/><line transform="translate(99,0)" x2="0" y2="5" stroke="#888" stroke-width="1" opacity="1"/><line transform="translate(102,0)" x2="0" y2="5" stroke="#888" stroke-width="1" opacity="1"/><line transform="translate(104,0)" x2="0" y2="5" stroke="#888" stroke-width="1" opacity="1"/><line transform="translate(106,0)" x2="0" y2="5" stroke="#888" stroke-width="1" opacity="1"/><line transform="translate(109,0)" x2="0" y2="5" stroke="#888" stroke-width="1" opacity="1"/><line transform="translate(111,0)" x2="0" y2="5" stroke="#888" stroke-width="1" opacity="1"/><line transform="translate(114,0)" x2="0" y2="5" stroke="#888" stroke-width="1" opacity="1"/><line transform="translate(116,0)" x2="0" y2="5" stroke="#888" stroke-width="1" opacity="1"/><line transform="translate(119,0)" x2="0" y2="5" stroke="#888" stroke-width="1" opacity="1"/><line transform="translate(121,0)" x2="0" y2="5" stroke="#888" stroke-width="1" opacity="1"/><line transform="translate(123,0)" x2="0" y2="5" stroke="#888" stroke-width="1" opacity="1"/><line transform="translate(126,0)" x2="0" y2="5" stroke="#888" stroke-width="1" opacity="1"/><line transform="translate(128,0)" x2="0" y2="5" stroke="#888" stroke-width="1" opacity="1"/><line transform="translate(131,0)" x2="0" y2="5" stroke="#888" stroke-width="1" opacity="1"/><line transform="translate(133,0)" x2="0" y2="5" stroke="#888" stroke-width="1" opacity="1"/><line transform="translate(135,0)" x2="0" y2="5" stroke="#888" stroke-width="1" opacity="1"/><line transform="translate(138,0)" x2="0" y2="5" stroke="#888" stroke-width="1" opacity="1"/><line transform="translate(140,0)" x2="0" y2="5" stroke="#888" stroke-width="1" opacity="1"/><line transform="translate(143,0)" x2="0" y2="5" stroke="#888" stroke-width="1" opacity="1"/><line transform="translate(145,0)" x2="0" y2="5" stroke="#888" stroke-width="1" opacity="1"/><line transform="translate(148,0)" x2="0" y2="5" stroke="#888" stroke-width="1" opacity="1"/><line transform="translate(150,0)" x2="0" y2="5" stroke="#888" stroke-width="1" opacity="1"/><line transform="translate(152,0)" x2="0" y2="5" stroke="#888" stroke-width="1" opacity="1"/><line transform="translate(155,0)" x2="0" y2="5" stroke="#888" stroke-width="1" opacity="1"/><line transform="translate(157,0)" x2="0" y2="5" stroke="#888" stroke-width="1" opacity="1"/><line transform="translate(160,0)" x2="0" y2="5" stroke="#888" stroke-width="1" opacity="1"/><line transform="translate(162,0)" x2="0" y2="5" stroke="#888" stroke-width="1" opacity="1"/><line transform="translate(165,0)" x2="0" y2="5" stroke="#888" stroke-width="1" opacity="1"/><line transform="translate(167,0)" x2="0" y2="5" stroke="#888" stroke-width="1" opacity="1"/><line transform="translate(169,0)" x2="0" y2="5" stroke="#888" stroke-width="1" opacity="1"/><line transform="translate(172,0)" x2="0" y2="5" stroke="#888" stroke-width="1" opacity="1"/><line transform="translate(174,0)" x2="0" y2="5" stroke="#888" stroke-width="1" opacity="1"/><line transform="translate(177,0)" x2="0" y2="5" stroke="#888" stroke-width="1" opacity="1"/><line transform="translate(179,0)" x2="0" y2="5" stroke="#888" stroke-width="1" opacity="1"/><line transform="translate(181,0)" x2="0" y2="5" stroke="#888" stroke-width="1" opacity="1"/><line transform="translate(184,0)" x2="0" y2="5" stroke="#888" stroke-width="1" opacity="1"/><line transform="translate(186,0)" x2="0" y2="5" stroke="#888" stroke-width="1" opacity="1"/><line transform="translate(189,0)" x2="0" y2="5" stroke="#888" stroke-width="1" opacity="1"/><line transform="translate(191,0)" x2="0" y2="5" stroke="#888" stroke-width="1" opacity="1"/><line transform="translate(194,0)" x2="0" y2="5" stroke="#888" stroke-width="1" opacity="1"/><line transform="translate(196,0)" x2="0" y2="5" stroke="#888" stroke-width="1" opacity="1"/><line transform="translate(198,0)" x2="0" y2="5" stroke="#888" stroke-width="1" opacity="1"/><line transform="translate(201,0)" x2="0" y2="5" stroke="#888" stroke-width="1" opacity="1"/><line transform="translate(203,0)" x2="0" y2="5" stroke="#888" stroke-width="1" opacity="1"/><line transform="translate(206,0)" x2="0" y2="5" stroke="#888" stroke-width="1" opacity="1"/><line transform="translate(208,0)" x2="0" y2="5" stroke="#888" stroke-width="1" opacity="1"/><line transform="translate(210,0)" x2="0" y2="5" stroke="#888" stroke-width="1" opacity="1"/><line transform="translate(213,0)" x2="0" y2="5" stroke="#888" stroke-width="1" opacity="1"/><line transform="translate(215,0)" x2="0" y2="5" stroke="#888" stroke-width="1" opacity="1"/><line transform="translate(218,0)" x2="0" y2="5" stroke="#888" stroke-width="1" opacity="1"/><line transform="translate(220,0)" x2="0" y2="5" stroke="#888" stroke-width="1" opacity="1"/><line transform="translate(223,0)" x2="0" y2="5" stroke="#888" stroke-width="1" opacity="1"/><line transform="translate(225,0)" x2="0" y2="5" stroke="#888" stroke-width="1" opacity="1"/><line transform="translate(227,0)" x2="0" y2="5" stroke="#888" stroke-width="1" opacity="1"/><line transform="translate(230,0)" x2="0" y2="5" stroke="#888" stroke-width="1" opacity="1"/><line transform="translate(232,0)" x2="0" y2="5" stroke="#888" stroke-width="1" opacity="1"/><line transform="translate(235,0)" x2="0" y2="5" stroke="#888" stroke-width="1" opacity="1"/><line transform="translate(237,0)" x2="0" y2="5" stroke="#888" stroke-width="1" opacity="1"/><line transform="translate(240,0)" x2="0" y2="5" stroke="#888" stroke-width="1" opacity="1"/><line transform="translate(242,0)" x2="0" y2="5" stroke="#888" stroke-width="1" opacity="1"/><line transform="translate(244,0)" x2="0" y2="5" stroke="#888" stroke-width="1" opacity="1"/><line transform="translate(247,0)" x2="0" y2="5" stroke="#888" stroke-width="1" opacity="1"/><line transform="translate(249,0)" x2="0" y2="5" stroke="#888" stroke-width="1" opacity="1"/><line transform="translate(252,0)" x2="0" y2="5" stroke="#888" stroke-width="1" opacity="1"/><line transform="translate(254,0)" x2="0" y2="5" stroke="#888" stroke-width="1" opacity="1"/><line transform="translate(256,0)" x2="0" y2="5" stroke="#888" stroke-width="1" opacity="1"/><line transform="translate(259,0)" x2="0" y2="5" stroke="#888" stroke-width="1" opacity="1"/><line transform="translate(261,0)" x2="0" y2="5" stroke="#888" stroke-width="1" opacity="1"/><line transform="translate(264,0)" x2="0" y2="5" stroke="#888" stroke-width="1" opacity="1"/><line transform="translate(266,0)" x2="0" y2="5" stroke="#888" stroke-width="1" opacity="1"/><line transform="translate(269,0)" x2="0" y2="5" stroke="#888" stroke-width="1" opacity="1"/><line transform="translate(271,0)" x2="0" y2="5" stroke="#888" stroke-width="1" opacity="1"/><line transform="translate(273,0)" x2="0" y2="5" stroke="#888" stroke-width="1" opacity="1"/><line transform="translate(276,0)" x2="0" y2="5" stroke="#888" stroke-width="1" opacity="1"/><line transform="translate(278,0)" x2="0" y2="5" stroke="#888" stroke-width="1" opacity="1"/><line transform="translate(281,0)" x2="0" y2="5" stroke="#888" stroke-width="1" opacity="1"/><line transform="translate(283,0)" x2="0" y2="5" stroke="#888" stroke-width="1" opacity="1"/><line transform="translate(285,0)" x2="0" y2="5" stroke="#888" stroke-width="1" opacity="1"/><line transform="translate(288,0)" x2="0" y2="5" stroke="#888" stroke-width="1" opacity="1"/><line transform="translate(290,0)" x2="0" y2="5" stroke="#888" stroke-width="1" opacity="1"/><line transform="translate(293,0)" x2="0" y2="5" stroke="#888" stroke-width="1" opacity="1"/><line transform="translate(295,0)" x2="0" y2="5" stroke="#888" stroke-width="1" opacity="1"/><line transform="translate(298,0)" x2="0" y2="5" stroke="#888" stroke-width="1" opacity="1"/><line transform="translate(300,0)" x2="0" y2="5" stroke="#888" stroke-width="1" opacity="1"/></g><g class="mark-text role-axis-label" pointer-events="none"><text text-anchor="start" transform="translate(0,15)" font-family="sans-serif" font-size="10px" fill="#000" opacity="1">0.00</text><text text-anchor="middle" transform="translate(2.4193548387096775,15)" font-family="sans-serif" font-size="10px" fill="#000" opacity="0">0.05</text><text text-anchor="middle" transform="translate(4.838709677419355,15)" font-family="sans-serif" font-size="10px" fill="#000" opacity="0">0.10</text><text text-anchor="middle" transform="translate(7.258064516129033,15)" font-family="sans-serif" font-size="10px" fill="#000" opacity="0">0.15</text><text text-anchor="middle" transform="translate(9.67741935483871,15)" font-family="sans-serif" font-size="10px" fill="#000" opacity="0">0.20</text><text text-anchor="middle" transform="translate(12.096774193548386,15)" font-family="sans-serif" font-size="10px" fill="#000" opacity="0">0.25</text><text text-anchor="middle" transform="translate(14.516129032258066,15)" font-family="sans-serif" font-size="10px" fill="#000" opacity="0">0.30</text><text text-anchor="middle" transform="translate(16.935483870967744,15)" font-family="sans-serif" font-size="10px" fill="#000" opacity="0">0.35</text><text text-anchor="middle" transform="translate(19.35483870967742,15)" font-family="sans-serif" font-size="10px" fill="#000" opacity="0">0.40</text><text text-anchor="middle" transform="translate(21.7741935483871,15)" font-family="sans-serif" font-size="10px" fill="#000" opacity="0">0.45</text><text text-anchor="middle" transform="translate(24.193548387096772,15)" font-family="sans-serif" font-size="10px" fill="#000" opacity="0">0.50</text><text text-anchor="middle" transform="translate(26.612903225806452,15)" font-family="sans-serif" font-size="10px" fill="#000" opacity="0">0.55</text><text text-anchor="middle" transform="translate(29.03225806451613,15)" font-family="sans-serif" font-size="10px" fill="#000" opacity="0">0.60</text><text text-anchor="middle" transform="translate(31.451612903225808,15)" font-family="sans-serif" font-size="10px" fill="#000" opacity="0">0.65</text><text text-anchor="middle" transform="translate(33.87096774193549,15)" font-family="sans-serif" font-size="10px" fill="#000" opacity="0">0.70</text><text text-anchor="middle" transform="translate(36.29032258064516,15)" font-family="sans-serif" font-size="10px" fill="#000" opacity="0">0.75</text><text text-anchor="middle" transform="translate(38.70967741935484,15)" font-family="sans-serif" font-size="10px" fill="#000" opacity="1">0.80</text><text text-anchor="middle" transform="translate(41.12903225806452,15)" font-family="sans-serif" font-size="10px" fill="#000" opacity="0">0.85</text><text text-anchor="middle" transform="translate(43.5483870967742,15)" font-family="sans-serif" font-size="10px" fill="#000" opacity="0">0.90</text><text text-anchor="middle" transform="translate(45.96774193548387,15)" font-family="sans-serif" font-size="10px" fill="#000" opacity="0">0.95</text><text text-anchor="middle" transform="translate(48.387096774193544,15)" font-family="sans-serif" font-size="10px" fill="#000" opacity="0">1.00</text><text text-anchor="middle" transform="translate(50.80645161290323,15)" font-family="sans-serif" font-size="10px" fill="#000" opacity="0">1.05</text><text text-anchor="middle" transform="translate(53.225806451612904,15)" font-family="sans-serif" font-size="10px" fill="#000" opacity="0">1.10</text><text text-anchor="middle" transform="translate(55.64516129032259,15)" font-family="sans-serif" font-size="10px" fill="#000" opacity="0">1.15</text><text text-anchor="middle" transform="translate(58.06451612903226,15)" font-family="sans-serif" font-size="10px" fill="#000" opacity="0">1.20</text><text text-anchor="middle" transform="translate(60.48387096774193,15)" font-family="sans-serif" font-size="10px" fill="#000" opacity="0">1.25</text><text text-anchor="middle" transform="translate(62.903225806451616,15)" font-family="sans-serif" font-size="10px" fill="#000" opacity="0">1.30</text><text text-anchor="middle" transform="translate(65.3225806451613,15)" font-family="sans-serif" font-size="10px" fill="#000" opacity="0">1.35</text><text text-anchor="middle" transform="translate(67.74193548387098,15)" font-family="sans-serif" font-size="10px" fill="#000" opacity="0">1.40</text><text text-anchor="middle" transform="translate(70.16129032258065,15)" font-family="sans-serif" font-size="10px" fill="#000" opacity="0">1.45</text><text text-anchor="middle" transform="translate(72.58064516129032,15)" font-family="sans-serif" font-size="10px" fill="#000" opacity="0">1.50</text><text text-anchor="middle" transform="translate(75,15)" font-family="sans-serif" font-size="10px" fill="#000" opacity="0">1.55</text><text text-anchor="middle" transform="translate(77.41935483870968,15)" font-family="sans-serif" font-size="10px" fill="#000" opacity="1">1.60</text><text text-anchor="middle" transform="translate(79.83870967741937,15)" font-family="sans-serif" font-size="10px" fill="#000" opacity="0">1.65</text><text text-anchor="middle" transform="translate(82.25806451612904,15)" font-family="sans-serif" font-size="10px" fill="#000" opacity="0">1.70</text><text text-anchor="middle" transform="translate(84.6774193548387,15)" font-family="sans-serif" font-size="10px" fill="#000" opacity="0">1.75</text><text text-anchor="middle" transform="translate(87.0967741935484,15)" font-family="sans-serif" font-size="10px" fill="#000" opacity="0">1.80</text><text text-anchor="middle" transform="translate(89.51612903225806,15)" font-family="sans-serif" font-size="10px" fill="#000" opacity="0">1.85</text><text text-anchor="middle" transform="translate(91.93548387096774,15)" font-family="sans-serif" font-size="10px" fill="#000" opacity="0">1.90</text><text text-anchor="middle" transform="translate(94.35483870967742,15)" font-family="sans-serif" font-size="10px" fill="#000" opacity="0">1.95</text><text text-anchor="middle" transform="translate(96.77419354838709,15)" font-family="sans-serif" font-size="10px" fill="#000" opacity="0">2.00</text><text text-anchor="middle" transform="translate(99.19354838709678,15)" font-family="sans-serif" font-size="10px" fill="#000" opacity="0">2.05</text><text text-anchor="middle" transform="translate(101.61290322580646,15)" font-family="sans-serif" font-size="10px" fill="#000" opacity="0">2.10</text><text text-anchor="middle" transform="translate(104.03225806451611,15)" font-family="sans-serif" font-size="10px" fill="#000" opacity="0">2.15</text><text text-anchor="middle" transform="translate(106.45161290322581,15)" font-family="sans-serif" font-size="10px" fill="#000" opacity="0">2.20</text><text text-anchor="middle" transform="translate(108.87096774193549,15)" font-family="sans-serif" font-size="10px" fill="#000" opacity="0">2.25</text><text text-anchor="middle" transform="translate(111.29032258064518,15)" font-family="sans-serif" font-size="10px" fill="#000" opacity="0">2.30</text><text text-anchor="middle" transform="translate(113.70967741935483,15)" font-family="sans-serif" font-size="10px" fill="#000" opacity="0">2.35</text><text text-anchor="middle" transform="translate(116.12903225806453,15)" font-family="sans-serif" font-size="10px" fill="#000" opacity="1">2.40</text><text text-anchor="middle" transform="translate(118.5483870967742,15)" font-family="sans-serif" font-size="10px" fill="#000" opacity="0">2.45</text><text text-anchor="middle" transform="translate(120.96774193548386,15)" font-family="sans-serif" font-size="10px" fill="#000" opacity="0">2.50</text><text text-anchor="middle" transform="translate(123.38709677419355,15)" font-family="sans-serif" font-size="10px" fill="#000" opacity="0">2.55</text><text text-anchor="middle" transform="translate(125.80645161290323,15)" font-family="sans-serif" font-size="10px" fill="#000" opacity="0">2.60</text><text text-anchor="middle" transform="translate(128.22580645161293,15)" font-family="sans-serif" font-size="10px" fill="#000" opacity="0">2.65</text><text text-anchor="middle" transform="translate(130.6451612903226,15)" font-family="sans-serif" font-size="10px" fill="#000" opacity="0">2.70</text><text text-anchor="middle" transform="translate(133.06451612903226,15)" font-family="sans-serif" font-size="10px" fill="#000" opacity="0">2.75</text><text text-anchor="middle" transform="translate(135.48387096774195,15)" font-family="sans-serif" font-size="10px" fill="#000" opacity="0">2.80</text><text text-anchor="middle" transform="translate(137.90322580645162,15)" font-family="sans-serif" font-size="10px" fill="#000" opacity="0">2.85</text><text text-anchor="middle" transform="translate(140.3225806451613,15)" font-family="sans-serif" font-size="10px" fill="#000" opacity="0">2.90</text><text text-anchor="middle" transform="translate(142.74193548387098,15)" font-family="sans-serif" font-size="10px" fill="#000" opacity="0">2.95</text><text text-anchor="middle" transform="translate(145.16129032258064,15)" font-family="sans-serif" font-size="10px" fill="#000" opacity="0">3.00</text><text text-anchor="middle" transform="translate(147.58064516129033,15)" font-family="sans-serif" font-size="10px" fill="#000" opacity="0">3.05</text><text text-anchor="middle" transform="translate(150,15)" font-family="sans-serif" font-size="10px" fill="#000" opacity="0">3.10</text><text text-anchor="middle" transform="translate(152.41935483870967,15)" font-family="sans-serif" font-size="10px" fill="#000" opacity="0">3.15</text><text text-anchor="middle" transform="translate(154.83870967741936,15)" font-family="sans-serif" font-size="10px" fill="#000" opacity="1">3.20</text><text text-anchor="middle" transform="translate(157.25806451612902,15)" font-family="sans-serif" font-size="10px" fill="#000" opacity="0">3.25</text><text text-anchor="middle" transform="translate(159.67741935483875,15)" font-family="sans-serif" font-size="10px" fill="#000" opacity="0">3.30</text><text text-anchor="middle" transform="translate(162.09677419354838,15)" font-family="sans-serif" font-size="10px" fill="#000" opacity="0">3.35</text><text text-anchor="middle" transform="translate(164.51612903225808,15)" font-family="sans-serif" font-size="10px" fill="#000" opacity="0">3.40</text><text text-anchor="middle" transform="translate(166.93548387096777,15)" font-family="sans-serif" font-size="10px" fill="#000" opacity="0">3.45</text><text text-anchor="middle" transform="translate(169.3548387096774,15)" font-family="sans-serif" font-size="10px" fill="#000" opacity="0">3.50</text><text text-anchor="middle" transform="translate(171.7741935483871,15)" font-family="sans-serif" font-size="10px" fill="#000" opacity="0">3.55</text><text text-anchor="middle" transform="translate(174.1935483870968,15)" font-family="sans-serif" font-size="10px" fill="#000" opacity="0">3.60</text><text text-anchor="middle" transform="translate(176.61290322580646,15)" font-family="sans-serif" font-size="10px" fill="#000" opacity="0">3.65</text><text text-anchor="middle" transform="translate(179.03225806451613,15)" font-family="sans-serif" font-size="10px" fill="#000" opacity="0">3.70</text><text text-anchor="middle" transform="translate(181.45161290322582,15)" font-family="sans-serif" font-size="10px" fill="#000" opacity="0">3.75</text><text text-anchor="middle" transform="translate(183.8709677419355,15)" font-family="sans-serif" font-size="10px" fill="#000" opacity="0">3.80</text><text text-anchor="middle" transform="translate(186.29032258064515,15)" font-family="sans-serif" font-size="10px" fill="#000" opacity="0">3.85</text><text text-anchor="middle" transform="translate(188.70967741935485,15)" font-family="sans-serif" font-size="10px" fill="#000" opacity="0">3.90</text><text text-anchor="middle" transform="translate(191.1290322580645,15)" font-family="sans-serif" font-size="10px" fill="#000" opacity="0">3.95</text><text text-anchor="middle" transform="translate(193.54838709677418,15)" font-family="sans-serif" font-size="10px" fill="#000" opacity="1">4.00</text><text text-anchor="middle" transform="translate(195.96774193548387,15)" font-family="sans-serif" font-size="10px" fill="#000" opacity="0">4.05</text><text text-anchor="middle" transform="translate(198.38709677419357,15)" font-family="sans-serif" font-size="10px" fill="#000" opacity="0">4.10</text><text text-anchor="middle" transform="translate(200.80645161290326,15)" font-family="sans-serif" font-size="10px" fill="#000" opacity="0">4.15</text><text text-anchor="middle" transform="translate(203.22580645161293,15)" font-family="sans-serif" font-size="10px" fill="#000" opacity="0">4.20</text><text text-anchor="middle" transform="translate(205.64516129032256,15)" font-family="sans-serif" font-size="10px" fill="#000" opacity="0">4.25</text><text text-anchor="middle" transform="translate(208.06451612903223,15)" font-family="sans-serif" font-size="10px" fill="#000" opacity="0">4.30</text><text text-anchor="middle" transform="translate(210.48387096774195,15)" font-family="sans-serif" font-size="10px" fill="#000" opacity="0">4.35</text><text text-anchor="middle" transform="translate(212.90322580645162,15)" font-family="sans-serif" font-size="10px" fill="#000" opacity="0">4.40</text><text text-anchor="middle" transform="translate(215.3225806451613,15)" font-family="sans-serif" font-size="10px" fill="#000" opacity="0">4.45</text><text text-anchor="middle" transform="translate(217.74193548387098,15)" font-family="sans-serif" font-size="10px" fill="#000" opacity="0">4.50</text><text text-anchor="middle" transform="translate(220.1612903225806,15)" font-family="sans-serif" font-size="10px" fill="#000" opacity="0">4.55</text><text text-anchor="middle" transform="translate(222.58064516129036,15)" font-family="sans-serif" font-size="10px" fill="#000" opacity="0">4.60</text><text text-anchor="middle" transform="translate(225,15)" font-family="sans-serif" font-size="10px" fill="#000" opacity="0">4.65</text><text text-anchor="middle" transform="translate(227.41935483870967,15)" font-family="sans-serif" font-size="10px" fill="#000" opacity="0">4.70</text><text text-anchor="middle" transform="translate(229.83870967741936,15)" font-family="sans-serif" font-size="10px" fill="#000" opacity="0">4.75</text><text text-anchor="middle" transform="translate(232.25806451612905,15)" font-family="sans-serif" font-size="10px" fill="#000" opacity="1">4.80</text><text text-anchor="middle" transform="translate(234.67741935483875,15)" font-family="sans-serif" font-size="10px" fill="#000" opacity="0">4.85</text><text text-anchor="middle" transform="translate(237.0967741935484,15)" font-family="sans-serif" font-size="10px" fill="#000" opacity="0">4.90</text><text text-anchor="middle" transform="translate(239.51612903225805,15)" font-family="sans-serif" font-size="10px" fill="#000" opacity="0">4.95</text><text text-anchor="middle" transform="translate(241.93548387096772,15)" font-family="sans-serif" font-size="10px" fill="#000" opacity="0">5.00</text><text text-anchor="middle" transform="translate(244.35483870967744,15)" font-family="sans-serif" font-size="10px" fill="#000" opacity="0">5.05</text><text text-anchor="middle" transform="translate(246.7741935483871,15)" font-family="sans-serif" font-size="10px" fill="#000" opacity="0">5.10</text><text text-anchor="middle" transform="translate(249.1935483870968,15)" font-family="sans-serif" font-size="10px" fill="#000" opacity="0">5.15</text><text text-anchor="middle" transform="translate(251.61290322580646,15)" font-family="sans-serif" font-size="10px" fill="#000" opacity="0">5.20</text><text text-anchor="middle" transform="translate(254.03225806451613,15)" font-family="sans-serif" font-size="10px" fill="#000" opacity="0">5.25</text><text text-anchor="middle" transform="translate(256.45161290322585,15)" font-family="sans-serif" font-size="10px" fill="#000" opacity="0">5.30</text><text text-anchor="middle" transform="translate(258.8709677419355,15)" font-family="sans-serif" font-size="10px" fill="#000" opacity="0">5.35</text><text text-anchor="middle" transform="translate(261.2903225806452,15)" font-family="sans-serif" font-size="10px" fill="#000" opacity="0">5.40</text><text text-anchor="middle" transform="translate(263.7096774193548,15)" font-family="sans-serif" font-size="10px" fill="#000" opacity="0">5.45</text><text text-anchor="middle" transform="translate(266.1290322580645,15)" font-family="sans-serif" font-size="10px" fill="#000" opacity="0">5.50</text><text text-anchor="middle" transform="translate(268.5483870967742,15)" font-family="sans-serif" font-size="10px" fill="#000" opacity="0">5.55</text><text text-anchor="middle" transform="translate(270.9677419354839,15)" font-family="sans-serif" font-size="10px" fill="#000" opacity="1">5.60</text><text text-anchor="middle" transform="translate(273.3870967741936,15)" font-family="sans-serif" font-size="10px" fill="#000" opacity="0">5.65</text><text text-anchor="middle" transform="translate(275.80645161290323,15)" font-family="sans-serif" font-size="10px" fill="#000" opacity="0">5.70</text><text text-anchor="middle" transform="translate(278.22580645161287,15)" font-family="sans-serif" font-size="10px" fill="#000" opacity="0">5.75</text><text text-anchor="middle" transform="translate(280.6451612903226,15)" font-family="sans-serif" font-size="10px" fill="#000" opacity="0">5.80</text><text text-anchor="middle" transform="translate(283.06451612903226,15)" font-family="sans-serif" font-size="10px" fill="#000" opacity="0">5.85</text><text text-anchor="middle" transform="translate(285.48387096774195,15)" font-family="sans-serif" font-size="10px" fill="#000" opacity="0">5.90</text><text text-anchor="middle" transform="translate(287.90322580645164,15)" font-family="sans-serif" font-size="10px" fill="#000" opacity="0">5.95</text><text text-anchor="middle" transform="translate(290.3225806451613,15)" font-family="sans-serif" font-size="10px" fill="#000" opacity="0">6.00</text><text text-anchor="middle" transform="translate(292.74193548387103,15)" font-family="sans-serif" font-size="10px" fill="#000" opacity="0">6.05</text><text text-anchor="middle" transform="translate(295.16129032258067,15)" font-family="sans-serif" font-size="10px" fill="#000" opacity="0">6.10</text><text text-anchor="middle" transform="translate(297.5806451612903,15)" font-family="sans-serif" font-size="10px" fill="#000" opacity="0">6.15</text><text text-anchor="end" transform="translate(300,15)" font-family="sans-serif" font-size="10px" fill="#000" opacity="0">6.20</text></g><g class="mark-rule role-axis-domain" pointer-events="none"><line transform="translate(0,0)" x2="300" y2="0" stroke="#888" stroke-width="1" opacity="1"/></g><g class="mark-text role-axis-title" pointer-events="none"><text text-anchor="middle" transform="translate(150,30)" font-family="sans-serif" font-size="11px" font-weight="bold" fill="#000" opacity="1">cbrt_ratio (binned)</text></g></g><path class="foreground" aria-hidden="true" d="" pointer-events="none" display="none"/></g></g><g class="mark-group role-axis" role="graphics-symbol" aria-roledescription="axis" aria-label="Y-axis titled 'Count of Records' for a linear scale with values from 0 to 900"><g transform="translate(0.5,0.5)"><path class="background" aria-hidden="true" d="M0,0h0v0h0Z" pointer-events="none"/><g><g class="mark-rule role-axis-tick" pointer-events="none"><line transform="translate(0,300)" x2="-5" y2="0" stroke="#888" stroke-width="1" opacity="1"/><line transform="translate(0,267)" x2="-5" y2="0" stroke="#888" stroke-width="1" opacity="1"/><line transform="translate(0,233)" x2="-5" y2="0" stroke="#888" stroke-width="1" opacity="1"/><line transform="translate(0,200)" x2="-5" y2="0" stroke="#888" stroke-width="1" opacity="1"/><line transform="translate(0,167)" x2="-5" y2="0" stroke="#888" stroke-width="1" opacity="1"/><line transform="translate(0,133)" x2="-5" y2="0" stroke="#888" stroke-width="1" opacity="1"/><line transform="translate(0,100)" x2="-5" y2="0" stroke="#888" stroke-width="1" opacity="1"/><line transform="translate(0,67)" x2="-5" y2="0" stroke="#888" stroke-width="1" opacity="1"/><line transform="translate(0,33)" x2="-5" y2="0" stroke="#888" stroke-width="1" opacity="1"/><line transform="translate(0,0)" x2="-5" y2="0" stroke="#888" stroke-width="1" opacity="1"/></g><g class="mark-text role-axis-label" pointer-events="none"><text text-anchor="end" transform="translate(-7,303)" font-family="sans-serif" font-size="10px" fill="#000" opacity="1">0</text><text text-anchor="end" transform="translate(-7,269.66666666666663)" font-family="sans-serif" font-size="10px" fill="#000" opacity="1">100</text><text text-anchor="end" transform="translate(-7,236.33333333333334)" font-family="sans-serif" font-size="10px" fill="#000" opacity="1">200</text><text text-anchor="end" transform="translate(-7,203.00000000000003)" font-family="sans-serif" font-size="10px" fill="#000" opacity="1">300</text><text text-anchor="end" transform="translate(-7,169.66666666666669)" font-family="sans-serif" font-size="10px" fill="#000" opacity="1">400</text><text text-anchor="end" transform="translate(-7,136.33333333333331)" font-family="sans-serif" font-size="10px" fill="#000" opacity="1">500</text><text text-anchor="end" transform="translate(-7,103.00000000000001)" font-family="sans-serif" font-size="10px" fill="#000" opacity="1">600</text><text text-anchor="end" transform="translate(-7,69.66666666666666)" font-family="sans-serif" font-size="10px" fill="#000" opacity="1">700</text><text text-anchor="end" transform="translate(-7,36.33333333333335)" font-family="sans-serif" font-size="10px" fill="#000" opacity="1">800</text><text text-anchor="end" transform="translate(-7,3)" font-family="sans-serif" font-size="10px" fill="#000" opacity="1">900</text></g><g class="mark-rule role-axis-domain" pointer-events="none"><line transform="translate(0,300)" x2="0" y2="-300" stroke="#888" stroke-width="1" opacity="1"/></g><g class="mark-text role-axis-title" pointer-events="none"><text text-anchor="middle" transform="translate(-27.6845703125,150) rotate(-90) translate(0,-2)" font-family="sans-serif" font-size="11px" font-weight="bold" fill="#000" opacity="1">Count of Records</text></g></g><path class="foreground" aria-hidden="true" d="" pointer-events="none" display="none"/></g></g><g class="mark-group role-scope pathgroup" role="graphics-object" aria-roledescription="group mark container"><g transform="translate(0,0)"><path class="background" aria-hidden="true" d="M0,0h300v300h-300Z"/><g><g class="mark-line role-mark marks" clip-path="url(#clip7)" role="graphics-symbol" aria-roledescription="line mark container"><path d="M1.21,298.333L10.887,299.667L13.306,299.333L15.726,295L18.145,289.333L20.565,286.333L22.984,280.667L25.403,273L27.823,282.667L30.242,281.667L32.661,286L35.081,281.333L37.5,280.667L39.919,287.667L42.339,284.333L44.758,285L47.177,284.667L49.597,267L52.016,285.333L54.435,272L56.855,283.667L59.274,282.333L61.694,275.667L64.113,277L66.532,280L68.952,278L71.371,278.667L73.79,283L76.21,283.333L78.629,282.333L81.048,280.667L83.468,275.667L85.887,275.333L88.306,280L90.726,281.333L93.145,275L95.565,278L97.984,274L100.403,270.667L102.823,276L105.242,275L107.661,277L110.081,270.667L112.5,275.333L114.919,272L117.339,277.333L119.758,275.333L122.177,277.333L124.597,274.333L127.016,274.333L129.435,282.667L131.855,272.667L134.274,277.667L136.694,275.667L139.113,283.667L141.532,274.333L143.952,281.667L146.371,277.333L148.79,279L151.21,275.667L153.629,285.333L156.048,280.333L158.468,282.333L160.887,281.667L163.306,285L165.726,284L168.145,285.667L170.565,291.333L172.984,290.667L175.403,289.667L177.823,294.333L180.242,288.333L182.661,289.667L185.081,292L187.5,286L189.919,287L192.339,281L194.758,284.667L197.177,283L199.597,286.333L202.016,285.667L204.435,286L206.855,292.667L209.274,290.667L211.694,292.333L214.113,292.667L216.532,291L218.952,287.667L221.371,293.667L223.79,296L226.21,295L228.629,293.667L231.048,294.667L233.468,294L235.887,291.333L238.306,290.667L240.726,286L243.145,290L245.565,297L252.823,299.667L255.242,299.667L257.661,299L260.081,299L262.5,299.333L267.339,299.333L269.758,299.333L272.177,299.667L274.597,298.333L277.016,295.667L279.435,293.667L281.855,299.667L298.79,299.667" stroke="#f58518" stroke-width="2"/></g></g><path class="foreground" aria-hidden="true" d="" display="none"/></g><g transform="translate(0,0)"><path class="background" aria-hidden="true" d="M0,0h300v300h-300Z"/><g><g class="mark-line role-mark marks" clip-path="url(#clip8)" role="graphics-symbol" aria-roledescription="line mark container"><path d="M1.21,297L13.306,297.667L15.726,290L18.145,273.333L20.565,265.333L22.984,260.333L25.403,262.333L27.823,264.333L30.242,257.667L32.661,254L35.081,258L37.5,234L39.919,213.667L42.339,180L44.758,140.667L47.177,99L49.597,24.333L52.016,49L54.435,131.333L56.855,195L59.274,223.333L61.694,239.667L64.113,259.333L66.532,269.667L68.952,279L71.371,283.333L73.79,285.667L76.21,288L78.629,293.333L81.048,294.333L83.468,293.667L85.887,292.667L88.306,291.333L90.726,293.333L93.145,292.667L95.565,295.333L97.984,293.333L100.403,292L102.823,293.667L105.242,296L107.661,296.667L110.081,294.333L112.5,294.333L114.919,294.333L117.339,294L119.758,297.333L122.177,293.667L124.597,294.333L127.016,293L129.435,295.333L131.855,297L134.274,296L136.694,296L139.113,296L141.532,297L143.952,297.333L146.371,295.333L148.79,296L151.21,297L153.629,297.667L156.048,296L158.468,299.333L160.887,299L163.306,295.333L165.726,298.333L168.145,297.333L170.565,299L172.984,298L175.403,298L177.823,299L180.242,297.333L182.661,298L185.081,297L187.5,298L189.919,299.333L192.339,299L194.758,299.333L197.177,299L199.597,299.667L202.016,299L204.435,299.333L211.694,299.667L214.113,299.667L216.532,299.667L233.468,299.667L238.306,299.667" stroke="#4c78a8" stroke-width="2"/></g></g><path class="foreground" aria-hidden="true" d="" display="none"/></g></g><g class="mark-group role-legend" role="graphics-symbol" aria-roledescription="legend" aria-label="Symbol legend titled 'GT' for stroke color with 2 values: 0/1, 1/1"><g transform="translate(318,0)"><path class="background" aria-hidden="true" d="M0,0h30v40h-30Z" pointer-events="none"/><g><g class="mark-group role-legend-entry"><g transform="translate(0,16)"><path class="background" aria-hidden="true" d="M0,0h0v0h0Z" pointer-events="none"/><g><g class="mark-group role-scope" role="graphics-object" aria-roledescription="group mark container"><g transform="translate(0,0)"><path class="background" aria-hidden="true" d="M0,0h29.9013671875v11h-29.9013671875Z" pointer-events="none" opacity="1"/><g><g class="mark-symbol role-legend-symbol" pointer-events="none"><path transform="translate(6,6)" d="M-5,0L5,0" stroke="#4c78a8" stroke-width="1.5" opacity="1"/></g><g class="mark-text role-legend-label" pointer-events="none"><text text-anchor="start" transform="translate(16,9)" font-family="sans-serif" font-size="10px" fill="#000" opacity="1">0/1</text></g></g><path class="foreground" aria-hidden="true" d="" pointer-events="none" display="none"/></g><g transform="translate(0,13)"><path class="background" aria-hidden="true" d="M0,0h29.9013671875v11h-29.9013671875Z" pointer-events="none" opacity="1"/><g><g class="mark-symbol role-legend-symbol" pointer-events="none"><path transform="translate(6,6)" d="M-5,0L5,0" stroke="#f58518" stroke-width="1.5" opacity="1"/></g><g class="mark-text role-legend-label" pointer-events="none"><text text-anchor="start" transform="translate(16,9)" font-family="sans-serif" font-size="10px" fill="#000" opacity="1">1/1</text></g></g><path class="foreground" aria-hidden="true" d="" pointer-events="none" display="none"/></g></g></g><path class="foreground" aria-hidden="true" d="" pointer-events="none" display="none"/></g></g><g class="mark-text role-legend-title" pointer-events="none"><text text-anchor="start" transform="translate(0,9)" font-family="sans-serif" font-size="11px" font-weight="bold" fill="#000" opacity="1">GT</text></g></g><path class="foreground" aria-hidden="true" d="" pointer-events="none" display="none"/></g></g></g><path class="foreground" aria-hidden="true" d="" display="none"/></g></g></g><defs><clipPath id="clip7"><rect x="0" y="0" width="300" height="300"/></clipPath><clipPath id="clip8"><rect x="0" y="0" width="300" height="300"/></clipPath></defs></svg>